<svg width="30" height="30" viewBox="0 0 30 30" fill="none" xmlns="http://www.w3.org/2000/svg">
<path opacity="0.3" d="M25 6.25H5C3.61929 6.25 2.5 7.36929 2.5 8.75V21.25C2.5 22.6307 3.61929 23.75 5 23.75H25C26.3807 23.75 27.5 22.6307 27.5 21.25V8.75C27.5 7.36929 26.3807 6.25 25 6.25Z" fill="#FF7276"/>
<path d="M27.5 10H2.5V13.75H27.5V10Z" fill="#FF7276"/>
<path opacity="0.3" d="M23.75 17.5H21.25C20.5596 17.5 20 18.0596 20 18.75C20 19.4404 20.5596 20 21.25 20H23.75C24.4404 20 25 19.4404 25 18.75C25 18.0596 24.4404 17.5 23.75 17.5Z" fill="#FF7276"/>
</svg>
