<svg width="30" height="30" viewBox="0 0 30 30" fill="none" xmlns="http://www.w3.org/2000/svg">
<path d="M21.5898 10.8567C21.1166 10.354 21.1406 9.5629 21.6433 9.08976C22.146 8.61661 22.9371 8.64058 23.4103 9.1433L28.4103 14.4558C28.8633 14.9371 28.8633 15.6879 28.4103 16.1692L23.4103 21.4817C22.9371 21.9844 22.146 22.0084 21.6433 21.5353C21.1406 21.0621 21.1166 20.271 21.5898 19.7683L25.7834 15.3125L21.5898 10.8567ZM8.41025 10.8567L4.21656 15.3125L8.41025 19.7683C8.8834 20.271 8.85942 21.0621 8.35671 21.5353C7.85399 22.0084 7.0629 21.9844 6.58975 21.4817L1.58975 16.1692C1.13675 15.6879 1.13675 14.9371 1.58975 14.4558L6.58975 9.1433C7.0629 8.64058 7.85399 8.61661 8.35671 9.08975C8.85942 9.5629 8.8834 10.354 8.41025 10.8567Z" fill="#FF7276"/>
<path opacity="0.3" d="M18.4721 6.87167C18.6508 6.20483 18.255 5.51941 17.5882 5.34074C16.9214 5.16206 16.236 5.55779 16.0573 6.22462L11.5279 23.1283C11.3493 23.7951 11.745 24.4806 12.4118 24.6592C13.0787 24.8379 13.7641 24.4422 13.9428 23.7754L18.4721 6.87167Z" fill="#FF7276"/>
</svg>
