<svg width="30" height="30" viewBox="0 0 30 30" fill="none" xmlns="http://www.w3.org/2000/svg">
<path fill-rule="evenodd" clip-rule="evenodd" d="M4.9464 10.5189L14.3482 4.7733C14.7484 4.52877 15.2517 4.52877 15.6518 4.7733L25.0536 10.5189C25.7968 10.973 26.25 11.7811 26.25 12.6521V23.7501C26.25 25.1308 25.1307 26.2501 23.75 26.2501L6.25 26.2501C4.86929 26.2501 3.75 25.1308 3.75 23.7501L3.75002 12.6521C3.75002 11.7811 4.20326 10.973 4.9464 10.5189ZM12.5 16.25C11.8097 16.25 11.25 16.8096 11.25 17.5V21.25C11.25 21.9403 11.8097 22.5 12.5 22.5H17.5C18.1904 22.5 18.75 21.9403 18.75 21.25V17.5C18.75 16.8096 18.1904 16.25 17.5 16.25H12.5Z" fill="#FF7276"/>
</svg>
