<svg width="30" height="30" viewBox="0 0 30 30" fill="none" xmlns="http://www.w3.org/2000/svg">
<path opacity="0.3" fill-rule="evenodd" clip-rule="evenodd" d="M4.84571 4.68204L27.7864 10.829C28.4533 11.0077 28.849 11.6931 28.6703 12.3599L25.4351 24.434C25.2564 25.1008 24.571 25.4966 23.9042 25.3179L0.963427 19.1709C0.296595 18.9923 -0.0991335 18.3068 0.0795438 17.64L3.31478 5.56593C3.49346 4.8991 4.17888 4.50337 4.84571 4.68204ZM13.0808 19.8296C15.7482 20.5443 18.4899 18.9614 19.2046 16.2941C19.9193 13.6267 18.3364 10.885 15.669 10.1703C13.0017 9.45563 10.26 11.0385 9.54531 13.7059C8.8306 16.3732 10.4135 19.1149 13.0808 19.8296Z" fill="#FF7276"/>
<path fill-rule="evenodd" clip-rule="evenodd" d="M2.5 7.5H26.25C26.9404 7.5 27.5 8.05964 27.5 8.75V21.25C27.5 21.9404 26.9404 22.5 26.25 22.5H2.5C1.80964 22.5 1.25 21.9404 1.25 21.25V8.75C1.25 8.05964 1.80964 7.5 2.5 7.5ZM14.375 20C17.1364 20 19.375 17.7614 19.375 15C19.375 12.2386 17.1364 10 14.375 10C11.6136 10 9.375 12.2386 9.375 15C9.375 17.7614 11.6136 20 14.375 20ZM14.375 17.5C15.7557 17.5 16.875 16.3807 16.875 15C16.875 13.6193 15.7557 12.5 14.375 12.5C12.9943 12.5 11.875 13.6193 11.875 15C11.875 16.3807 12.9943 17.5 14.375 17.5Z" fill="#FF7276"/>
</svg>
