<svg width="30" height="30" viewBox="0 0 30 30" fill="none" xmlns="http://www.w3.org/2000/svg">
<path fill-rule="evenodd" clip-rule="evenodd" d="M23.75 13.75H25C27.0711 13.75 28.75 15.4289 28.75 17.5C28.75 19.5711 27.0711 21.25 25 21.25H23.75V25C23.75 26.3807 22.6307 27.5 21.25 27.5H6.25C4.86929 27.5 3.75 26.3807 3.75 25V21.25H6.25C8.32107 21.25 10 19.5711 10 17.5C10 15.4289 8.32107 13.75 6.25 13.75H3.75V10C3.75 8.61929 4.86929 7.5 6.25 7.5H10V6.25C10 4.17893 11.6789 2.5 13.75 2.5C15.8211 2.5 17.5 4.17893 17.5 6.25V7.5H21.25C22.6307 7.5 23.75 8.61929 23.75 10V13.75Z" fill="#FF7276"/>
</svg>
