<svg width="115" height="104" viewBox="0 0 115 104" fill="none" xmlns="http://www.w3.org/2000/svg">
<mask id="mask0" mask-type="alpha" maskUnits="userSpaceOnUse" x="0" y="0" width="115" height="104">
<rect width="115" height="104" rx="3" fill="#FBDA57"/>
</mask>
<g mask="url(#mask0)">
<rect opacity="0.12" width="115" height="104" rx="3" fill="#FF7276"/>
<g opacity="0.5">
<rect opacity="0.3" x="97.4072" y="7.0755" width="79.3652" height="141.577" rx="20" fill="#FF7276"/>
<rect opacity="0.1" x="79.2572" y="-15.6339" width="79.3652" height="141.577" rx="20" fill="#FF7276"/>
<rect opacity="0.2" x="51.2391" y="34.778" width="79.3652" height="141.577" rx="20" fill="#FF7276"/>
<rect opacity="0.3" x="66.8926" y="53.3281" width="79.3652" height="141.577" rx="20" fill="#FF7276"/>
</g>
</g>
<g clip-path="url(#clip0)">
<path opacity="0.3" fill-rule="evenodd" clip-rule="evenodd" d="M42.2688 36.0231L76.6799 45.2435C77.6801 45.5115 78.2737 46.5397 78.0057 47.5399L73.1528 65.651C72.8848 66.6513 71.8567 67.2449 70.8564 66.9769L36.4453 57.7564C35.4451 57.4884 34.8515 56.4603 35.1195 55.46L39.9724 37.3489C40.2404 36.3487 41.2685 35.7551 42.2688 36.0231ZM54.6214 58.7444C58.6224 59.8165 62.735 57.4421 63.807 53.4411C64.8791 49.4401 62.5047 45.3276 58.5037 44.2555C54.5027 43.1835 50.3902 45.5578 49.3181 49.5588C48.2461 53.5598 50.6205 57.6724 54.6214 58.7444Z" fill="#FF7276"/>
<path fill-rule="evenodd" clip-rule="evenodd" d="M38.75 40.25H74.375C75.4105 40.25 76.25 41.0895 76.25 42.125V60.875C76.25 61.9105 75.4105 62.75 74.375 62.75H38.75C37.7145 62.75 36.875 61.9105 36.875 60.875V42.125C36.875 41.0895 37.7145 40.25 38.75 40.25ZM56.5625 59C60.7046 59 64.0625 55.6421 64.0625 51.5C64.0625 47.3579 60.7046 44 56.5625 44C52.4204 44 49.0625 47.3579 49.0625 51.5C49.0625 55.6421 52.4204 59 56.5625 59ZM56.5625 55.25C58.6336 55.25 60.3125 53.5711 60.3125 51.5C60.3125 49.4289 58.6336 47.75 56.5625 47.75C54.4914 47.75 52.8125 49.4289 52.8125 51.5C52.8125 53.5711 54.4914 55.25 56.5625 55.25Z" fill="#FF7276"/>
</g>
<defs>
<clipPath id="clip0">
<rect width="45" height="45" fill="white" transform="translate(35 29)"/>
</clipPath>
</defs>
</svg>
