<svg width="70" height="30" viewBox="0 0 70 30" fill="none" xmlns="http://www.w3.org/2000/svg">
<path d="M25.769 19.9691V24.7729H26.8701C27.9809 24.7729 28.9905 24.0272 29.2368 22.9322C29.3201 22.5787 29.323 22.2107 29.2453 21.8559C29.1677 21.5011 29.0115 21.1686 28.7886 20.8835C28.5656 20.5984 28.2817 20.368 27.958 20.2096C27.6343 20.0512 27.2794 19.969 26.9197 19.9691H25.769Z" fill="#FF7276"/>
<path d="M18.763 19.9691H2.45673C1.34686 19.9691 0.336293 20.7158 0.0909533 21.8097C0.00761968 22.1629 0.0045087 22.5307 0.0818536 22.8853C0.159199 23.2399 0.314992 23.5722 0.53755 23.8573C0.760109 24.1424 1.04366 24.3728 1.36693 24.5314C1.6902 24.69 2.04481 24.7726 2.40415 24.7729H18.7601L18.763 19.9691Z" fill="#FF7276"/>
<path d="M24.5185 3.53953V2.45736C24.5185 1.33288 23.7776 0.309742 22.692 0.0657615C22.3444 -0.0181524 21.9824 -0.0217303 21.6332 0.0552942C21.284 0.132319 20.9564 0.287961 20.675 0.510632C20.3935 0.733303 20.1654 1.01726 20.0076 1.34137C19.8498 1.66548 19.7664 2.02139 19.7635 2.38259V3.53953H24.5185Z" fill="#FF7276"/>
<path d="M19.7635 10.8685V27.4159C19.7635 28.5404 20.5044 29.5635 21.59 29.8085C21.9381 29.8925 22.3005 29.896 22.6501 29.8186C22.9997 29.7413 23.3275 29.5851 23.609 29.3618C23.8905 29.1384 24.1184 28.8537 24.2757 28.5288C24.4331 28.204 24.5157 27.8474 24.5175 27.4857V10.8685H19.7635Z" fill="#FF7276"/>
<path d="M3.50522 4.80078H2.44987C1.2592 4.80078 0.195088 5.65471 0.0256869 6.84707C-0.0243952 7.18854 -0.0010618 7.53692 0.094098 7.86846C0.189258 8.20001 0.354009 8.50694 0.577131 8.76835C0.800253 9.02975 1.07651 9.2395 1.38708 9.38331C1.69764 9.52711 2.03524 9.60159 2.37686 9.60168H3.50522V4.80078Z" fill="#FF7276"/>
<path d="M10.7583 4.80078V9.60463H26.9195C28.1112 9.60463 29.1753 8.7507 29.3457 7.55933C29.3956 7.21779 29.3721 6.8694 29.2768 6.53786C29.1816 6.20631 29.0167 5.8994 28.7935 5.63802C28.5703 5.37663 28.294 5.1669 27.9834 5.02311C27.6728 4.87931 27.3352 4.80483 26.9935 4.80472L10.7583 4.80078Z" fill="#FF7276"/>
<path d="M9.50864 18.9581V2.6144C9.50864 1.49091 8.76872 0.466783 7.6832 0.221819C7.33504 0.137796 6.9726 0.134331 6.62293 0.211682C6.27327 0.289033 5.94541 0.445202 5.66384 0.668529C5.38227 0.891856 5.15426 1.17657 4.99683 1.50142C4.83941 1.82626 4.75664 2.18285 4.7547 2.54455L4.7547 18.9581H9.50864Z" fill="#FF7276"/>
<path d="M4.7547 26.0367V27.3264C4.7547 28.4499 5.49461 29.4741 6.58014 29.719C6.9283 29.803 7.29074 29.8065 7.6404 29.7292C7.99007 29.6518 8.31793 29.4956 8.5995 29.2723C8.88107 29.049 9.10908 28.7643 9.2665 28.4394C9.42393 28.1146 9.5067 27.758 9.50864 27.3963V26.0367H4.7547Z" fill="#FF7276"/>
<path d="M38.2908 10.1419C39.6679 10.1419 40.7798 10.5567 41.6265 11.3864C42.4825 12.216 42.9105 13.3332 42.9105 14.7379C42.9105 16.1332 42.4825 17.2457 41.6265 18.0754C40.7798 18.905 39.6679 19.3198 38.2908 19.3198H35.3459V10.1419H38.2908ZM37.0068 17.8067H38.2908C39.1468 17.8067 39.84 17.5144 40.3704 16.9299C40.8728 16.3642 41.1241 15.6336 41.1241 14.7379C41.1241 13.8234 40.8728 13.0834 40.3704 12.5177C39.8493 11.9426 39.1561 11.6551 38.2908 11.6551H37.0068V17.8067Z" fill="#595959"/>
<path d="M48.4032 9.95807C49.008 9.95807 49.5616 10.0618 50.064 10.2692C50.5665 10.4672 50.9991 10.7641 51.362 11.1601C52.125 11.9897 52.5065 13.1776 52.5065 14.7238C52.5065 16.2794 52.125 17.4814 51.362 18.3299C50.6363 19.1218 49.6453 19.5178 48.3892 19.5178C47.1424 19.5178 46.1561 19.1124 45.4304 18.3016C44.6674 17.4626 44.2859 16.2699 44.2859 14.7238C44.2859 13.1588 44.6674 11.9615 45.4304 11.1318C46.1468 10.3493 47.1378 9.95807 48.4032 9.95807ZM50.8037 14.7521C50.8037 13.6962 50.5851 12.8854 50.1478 12.3197C49.7198 11.7446 49.1382 11.4571 48.4032 11.4571C47.6681 11.4571 47.0819 11.7446 46.6446 12.3197C46.2073 12.8854 45.9886 13.6962 45.9886 14.7521C45.9886 15.7986 46.2073 16.6046 46.6446 17.1703C47.0819 17.7265 47.6681 18.0046 48.4032 18.0046C49.1382 18.0046 49.7198 17.7265 50.1478 17.1703C50.5851 16.6046 50.8037 15.7986 50.8037 14.7521Z" fill="#595959"/>
<path d="M57.707 9.95807C58.2653 9.95807 58.7491 10.0288 59.1585 10.1702C59.5679 10.3022 59.9215 10.4907 60.2192 10.7359C60.8054 11.2167 61.1869 11.8908 61.3637 12.7581L59.6051 13.0834C59.4562 12.6026 59.2236 12.216 58.9073 11.9238C58.6002 11.6221 58.2141 11.4712 57.7489 11.4712C57.1162 11.4712 56.6044 11.7399 56.2136 12.2773C55.7949 12.8618 55.5856 13.6726 55.5856 14.7097C55.5856 15.7373 55.7717 16.5433 56.1438 17.1279C56.516 17.703 57.0231 17.9905 57.6651 17.9905C58.3071 17.9905 58.791 17.8349 59.1166 17.5238C59.4423 17.2033 59.6051 16.7932 59.6051 16.2935H61.3776C61.3776 17.3211 61.052 18.1178 60.4007 18.6834C59.7586 19.2397 58.8747 19.5178 57.7489 19.5178C56.5486 19.5178 55.5949 19.0935 54.8877 18.2451C54.1713 17.3777 53.8131 16.1992 53.8131 14.7097C53.8131 13.2012 54.1806 12.0227 54.9156 11.1742C55.6228 10.3635 56.5532 9.95807 57.707 9.95807Z" fill="#595959"/>
<path d="M68.06 12.6733C67.9111 11.8719 67.3528 11.4712 66.3852 11.4712C65.9106 11.4712 65.5385 11.5702 65.2686 11.7682C65.0081 11.9568 64.8778 12.1877 64.8778 12.4611C64.8778 12.7345 64.9616 12.9514 65.1291 13.1116C65.3058 13.2625 65.5757 13.4039 65.9385 13.5359L67.9065 14.3137C68.5764 14.5777 69.0928 14.9123 69.4557 15.3177C69.8185 15.7137 70 16.2134 70 16.8168C70 17.6464 69.6929 18.3063 69.0788 18.7966C68.4647 19.2774 67.5901 19.5178 66.4549 19.5178C65.4501 19.5178 64.6359 19.268 64.0125 18.7683C63.3147 18.2215 62.9471 17.4484 62.9099 16.4491H64.5429C64.5429 17.2033 64.929 17.6794 65.7013 17.8774C65.9339 17.9434 66.2409 17.9764 66.6224 17.9764C67.0039 17.9764 67.3575 17.8821 67.6831 17.6935C68.0088 17.4955 68.1716 17.2363 68.1716 16.9157C68.1716 16.5858 68.0832 16.3359 67.9065 16.1662C67.7297 15.9871 67.4412 15.8221 67.0411 15.6713L65.2407 14.9501C64.5429 14.6767 64.0079 14.3561 63.6357 13.9884C63.2635 13.6207 63.0774 13.1116 63.0774 12.4611C63.0774 11.6975 63.3705 11.0941 63.9567 10.651C64.5522 10.189 65.357 9.95807 66.3712 9.95807C67.3947 9.95807 68.1809 10.1985 68.7299 10.6793C69.2882 11.1507 69.6092 11.8153 69.6929 12.6733H68.06Z" fill="#595959"/>
</svg>
