<svg width="30" height="30" viewBox="0 0 30 30" fill="none" xmlns="http://www.w3.org/2000/svg">
<path opacity="0.3" fill-rule="evenodd" clip-rule="evenodd" d="M12.3483 15.8839L9.69668 18.5355C9.20852 19.0237 9.20852 19.8151 9.69668 20.3033C10.1848 20.7914 10.9763 20.7914 11.4644 20.3033L14.1161 17.6516L15 18.5355C15.9763 19.5118 15.9763 21.0947 15 22.0711L11.4644 25.6066C10.4881 26.5829 8.90522 26.5829 7.92891 25.6066L4.39338 22.0711C3.41707 21.0947 3.41707 19.5118 4.39338 18.5355L7.92891 15C8.90522 14.0237 10.4881 14.0237 11.4644 15L12.3483 15.8839Z" fill="#FF7276"/>
<path fill-rule="evenodd" clip-rule="evenodd" d="M17.6517 14.1161L20.3033 11.4645C20.7915 10.9763 20.7915 10.1849 20.3033 9.69672C19.8152 9.20856 19.0237 9.20856 18.5355 9.69672L15.8839 12.3484L15 11.4645C14.0237 10.4882 14.0237 8.90526 15 7.92895L18.5355 4.39341C19.5119 3.4171 21.0948 3.4171 22.0711 4.39341L25.6066 7.92895C26.5829 8.90526 26.5829 10.4882 25.6066 11.4645L22.0711 15C21.0948 15.9763 19.5118 15.9763 18.5355 15L17.6517 14.1161Z" fill="#FF7276"/>
<path opacity="0.3" fill-rule="evenodd" clip-rule="evenodd" d="M5.27727 5.27729C5.76543 4.78914 6.55688 4.78914 7.04504 5.27729L8.81281 7.04506C9.30096 7.53322 9.30096 8.32467 8.81281 8.81283C8.32465 9.30098 7.53319 9.30098 7.04504 8.81283L5.27727 7.04506C4.78912 6.5569 4.78912 5.76545 5.27727 5.27729ZM11.6789 1.89341C12.3693 1.89341 12.9289 2.45305 12.9289 3.14341L12.9289 5.64341C12.9289 6.33377 12.3693 6.89341 11.6789 6.89341C10.9886 6.89341 10.4289 6.33377 10.4289 5.64341L10.4289 3.14341C10.4289 2.45305 10.9886 1.89341 11.6789 1.89341ZM2.10785 11.4645C2.10785 10.7741 2.6675 10.2145 3.35785 10.2145L5.85785 10.2145C6.54821 10.2145 7.10786 10.7741 7.10786 11.4645C7.10785 12.1548 6.54821 12.7145 5.85786 12.7145L3.35785 12.7145C2.6675 12.7145 2.10785 12.1548 2.10785 11.4645Z" fill="#FF7276"/>
<path opacity="0.3" fill-rule="evenodd" clip-rule="evenodd" d="M24.5711 24.5711C25.0592 24.0829 25.0592 23.2914 24.5711 22.8033L22.8033 21.0355C22.3152 20.5474 21.5237 20.5474 21.0356 21.0355C20.5474 21.5237 20.5474 22.3151 21.0356 22.8033L22.8033 24.5711C23.2915 25.0592 24.0829 25.0592 24.5711 24.5711ZM27.955 18.1694C27.955 17.4791 27.3953 16.9194 26.705 16.9194L24.205 16.9194C23.5146 16.9194 22.955 17.4791 22.955 18.1694C22.955 18.8598 23.5146 19.4194 24.205 19.4194L26.705 19.4194C27.3953 19.4194 27.955 18.8598 27.955 18.1694ZM18.3839 27.7405C19.0743 27.7405 19.6339 27.1808 19.6339 26.4905V23.9905C19.6339 23.3001 19.0743 22.7405 18.3839 22.7405C17.6936 22.7405 17.1339 23.3001 17.1339 23.9905L17.1339 26.4905C17.1339 27.1808 17.6936 27.7405 18.3839 27.7405Z" fill="#FF7276"/>
</svg>
